<?xml version="1.0" encoding="iso-8859-1"?><!-- Generator: Adobe Illustrator 21.0.0, SVG Export Plug-In . SVG Version: 6.00 Build 0)  --><svg xmlns="http://www.w3.org/2000/svg" xmlns:xlink="http://www.w3.org/1999/xlink" viewBox="0 0 50 50" width="50px" height="50px"><path style="fill:none;stroke:#000000;stroke-width:2;stroke-linejoin:round;stroke-miterlimit:10;" d="M11,5H4C3.4,5,3,5.4,3,6v40c0,0.6,0.4,1,1,1h42c0.6,0,1-0.4,1-1V6c0-0.6-0.4-1-1-1h-7"/><line style="fill:none;stroke:#000000;stroke-width:2;stroke-linejoin:round;stroke-miterlimit:10;" x1="35" y1="5" x2="15" y2="5"/><line style="fill:none;stroke:#000000;stroke-width:2;stroke-linejoin:round;stroke-miterlimit:10;" x1="3" y1="14" x2="47" y2="14"/><polygon style="fill:none;stroke:#000000;stroke-width:2;stroke-miterlimit:10;" points="11,20 39,20 39,41 30,41 11,41 "/><line style="fill:none;stroke:#000000;stroke-width:2;stroke-linejoin:round;stroke-miterlimit:10;" x1="11" y1="27" x2="39" y2="27"/><line style="fill:none;stroke:#000000;stroke-width:2;stroke-linejoin:round;stroke-miterlimit:10;" x1="11" y1="34" x2="39" y2="34"/><line style="fill:none;stroke:#000000;stroke-width:2;stroke-linejoin:round;stroke-miterlimit:10;" x1="25" y1="20" x2="25" y2="41"/><line style="fill:none;stroke:#000000;stroke-width:2;stroke-linejoin:round;stroke-miterlimit:10;" x1="18" y1="20" x2="18" y2="41"/><line style="fill:none;stroke:#000000;stroke-width:2;stroke-linejoin:round;stroke-miterlimit:10;" x1="32" y1="20" x2="32" y2="41"/><path style="fill:none;stroke:#000000;stroke-width:2;stroke-linejoin:round;stroke-miterlimit:10;" d="M38,9h-2c-0.552,0-1-0.448-1-1V2c0-0.552,0.448-1,1-1h2c0.552,0,1,0.448,1,1v6C39,8.552,38.552,9,38,9z"/><path style="fill:none;stroke:#000000;stroke-width:2;stroke-linejoin:round;stroke-miterlimit:10;" d="M14,9h-2c-0.552,0-1-0.448-1-1V2c0-0.552,0.448-1,1-1h2c0.552,0,1,0.448,1,1v6C15,8.552,14.552,9,14,9z"/></svg>